<svg xmlns="http://www.w3.org/2000/svg" viewBox="0 0 1847.04 864.883"><defs><clipPath id="a"><path d="M0 648.662h1385.284V0H0z"/></clipPath></defs><path fill="#545759" d="M878.615 116.245v69.936l116.245-34.967zM854.047 272.19v69.935l116.245-34.968zm-64.715-89.65v69.937l116.246-34.968zM943.33 206.5v69.937l116.244-34.968z"/><g clip-path="url(#a)" transform="matrix(1.33333 0 0 -1.33333 0 864.883)"><path fill="#545759" d="M1291.442 305.856c2.153 0 4.215-.536 6.196-1.61 1.97-1.075 3.525-2.62 4.655-4.63 1.126-2.006 1.694-4.108 1.694-6.302 0-2.186-.557-4.266-1.66-6.247a11.864 11.864 0 00-4.638-4.637c-1.982-1.104-4.066-1.658-6.248-1.658-2.183 0-4.266.554-6.243 1.658a11.838 11.838 0 00-4.638 4.637c-1.108 1.98-1.662 4.06-1.662 6.247 0 2.194.565 4.296 1.695 6.302 1.13 2.01 2.685 3.555 4.66 4.63 1.976 1.074 4.034 1.61 6.187 1.61m.015-2.454c-1.72 0-3.375-.433-4.956-1.295-1.584-.862-2.83-2.102-3.748-3.716-.906-1.617-1.365-3.308-1.365-5.076 0-1.757.444-3.433 1.336-5.03.89-1.59 2.134-2.835 3.726-3.73s3.264-1.342 5.007-1.342c1.76 0 3.433.447 5.02 1.342a9.636 9.636 0 013.728 3.73c.896 1.597 1.34 3.273 1.34 5.03 0 1.768-.452 3.46-1.365 5.077-.906 1.615-2.16 2.855-3.753 3.717-1.58.862-3.243 1.295-4.97 1.295m-5.68-16.8v13.31h2.7c2.536 0 3.955-.01 4.263-.032.892-.077 1.59-.253 2.088-.532.495-.278.91-.704 1.243-1.28.33-.572.5-1.207.5-1.904 0-.964-.315-1.782-.946-2.465-.624-.683-1.508-1.105-2.638-1.27.4-.154.712-.32.932-.503.22-.176.514-.517.9-1.02.098-.13.424-.67.982-1.624l1.57-2.682h-3.338l-1.112 2.162c-.755 1.452-1.375 2.366-1.87 2.74-.492.378-1.112.565-1.864.565h-.708V286.6zm2.7 7.563h1.098c1.563 0 2.53.06 2.91.18a1.712 1.712 0 011.217 1.654c0 .373-.1.7-.316.99-.216.29-.52.5-.91.623-.396.125-1.364.187-2.9.187h-1.098zM118.593 114.584v-2.73l266.165-.003v2.734zm883.333 0v-2.73l266.16-.003v2.734zM415.004 129.92h2.71v-23.66h16.592v-2.49h-19.302zm48.893-16.043c0-4.76-1.32-10.766-11.683-10.766s-11.684 6.006-11.684 10.768v16.04h2.71v-16.04c0-6.85 4.432-8.277 8.974-8.277 4.54.002 8.972 1.43 8.972 8.278v16.04h2.71zm16.553 3.153l-10.18 12.89h3.624l8.495-10.767 8.756 10.766h3.367l-10.256-12.744 10.586-13.408h-3.587l-8.94 11.243-9.01-11.242h-3.477zm43.69-3.153c0-4.76-1.32-10.766-11.683-10.766-10.362 0-11.683 6.006-11.683 10.768v16.04h2.71v-16.04c0-6.85 4.432-8.277 8.973-8.277 4.542.002 8.973 1.43 8.973 8.278v16.04h2.71zm9.08 16.043h14.248c4.432 0 8.496-1.574 8.496-7.07 0-2.783-1.72-5.567-5.128-6.334v-.073c3.7-.587 4.468-2.968 4.655-7.252.07-1.646.29-4.834.914-5.42h-2.93c-.477.55-.66 2.49-.694 5.347-.073 4.615-1.834 6.152-6.34 6.152h-10.508v-11.5h-2.71zm2.712-12.16h11.463c2.964 0 5.642 1.1 5.642 5.09 0 3.845-2.894 4.58-5.385 4.58h-11.72zm36.44-3.003l-11.757 15.164h3.514l9.596-12.452 9.596 12.453h3.517l-11.757-15.163v-10.99h-2.71zm61.086 15.163h3.844v-26.15h-2.707v22.595h-.073l-11.537-22.596h-2.49l-11.5 22.636h-.074V103.77h-2.71v26.15h3.955l11.646-22.743zm25.526.66c7.435 0 14.21-4.506 14.21-13.735 0-9.23-6.775-13.734-14.21-13.734-7.436 0-14.21 4.506-14.21 13.735 0 9.23 6.774 13.734 14.21 13.734m0-24.978c5.752 0 11.28 3.367 11.28 11.243s-5.528 11.243-11.28 11.243-11.28-3.367-11.28-11.243 5.528-11.243 11.28-11.243m29.443 21.828h-10.253v2.49h23.217v-2.49H691.14v-23.66h-2.71zm32.156 3.15c7.435 0 14.21-4.506 14.21-13.735 0-9.23-6.775-13.734-14.21-13.734-7.436 0-14.21 4.506-14.21 13.735 0 9.23 6.774 13.734 14.21 13.734m0-24.978c5.748 0 11.28 3.367 11.28 11.243s-5.532 11.243-11.28 11.243c-5.752 0-11.28-3.367-11.28-11.243s5.528-11.243 11.28-11.243M742.7 129.92h14.248c4.432 0 8.496-1.574 8.496-7.07 0-2.783-1.72-5.567-5.124-6.334v-.073c3.697-.587 4.464-2.968 4.65-7.252.07-1.646.29-4.834.914-5.42h-2.927c-.48.55-.664 2.49-.697 5.347-.073 4.615-1.834 6.152-6.34 6.152h-10.508v-11.5h-2.71zm2.712-12.16h11.463c2.964 0 5.642 1.1 5.642 5.09 0 3.845-2.894 4.58-5.385 4.58h-11.72zm50.282-3.003l-11.757 15.164h3.514l9.598-12.452 9.596 12.453h3.518l-11.757-15.163v-10.99h-2.71zm35.6-3.037h-13.77l-3.552-7.95h-2.93l11.866 26.15h3.15l11.864-26.15h-3.15zm-6.85 15.49l-5.82-13h11.57zm45.269-13.478c-.587-5.862-5.425-10.62-12.93-10.62-8.496 0-13.918 5.345-13.918 13.734 0 5.968 3.698 13.734 13.917 13.734 5.716 0 11.904-2.6 12.707-9.49h-2.708c-.807 4.986-5.275 7-10 7-6.48 0-10.986-3.628-10.986-11.244 0-5.825 3.037-11.247 10.986-11.247 6.23 0 9.303 3.15 10.216 8.132zm7.579 16.188h2.71v-11.06H898.9v11.06h2.71v-26.15h-2.71v12.6h-18.895v-12.6h-2.71zm40.576-2.49h-10.253v2.49h23.22v-2.49H920.58v-23.66h-2.712zm36.696-4.98c-.367 4.467-3.99 5.637-8.206 5.637-4.21 0-7.395-1.647-7.395-4.615 0-3.404 3.184-4.21 9.56-5.27 4.757-.808 9.522-1.905 9.522-6.927 0-6.408-5.825-8.162-10.913-8.162-6.632 0-11.467 2.268-11.87 9.3h2.71c.477-5.492 4.142-6.812 9.16-6.812 3.918 0 7.982 1.064 7.982 5.202 0 3.99-4.76 4.468-9.523 5.24-6.227.985-9.558 2.742-9.558 6.954 0 5.715 5.275 7.582 10.326 7.582 5.352 0 10.733-1.904 10.917-8.13zm-727.6 176.91c-6.05 3.665-15.333 5.525-27.59 5.525h-80.78v-103.11h17.522v38.97h63.26c12.258 0 21.54 1.857 27.588 5.52 5.94 3.597 8.826 8.846 8.826 16.057v20.983c0 7.208-2.887 12.46-8.826 16.056m-8.697-37.038c0-5.652-6.182-8.4-18.892-8.4h-63.26v37.783h63.26c12.71 0 18.892-2.747 18.892-8.4zM391.25 299.36c-6.05 3.665-15.333 5.525-27.593 5.525h-82.28v-103.11h17.525v47.063h56.043l24.728-47.064h18.565L373.32 249.22l1.735.21c16.837 2.03 25.02 8.894 25.02 20.988v12.887c0 7.208-2.886 12.46-8.825 16.056m-8.7-28.942c0-5.656-6.18-8.4-18.893-8.4h-64.755v29.687h64.755c12.714 0 18.892-2.747 18.892-8.4zm66.518-68.645h106.104v13.18h-88.58v34.782h84.083v13.18H466.59v28.79h88.582v13.18H449.068zm276.102 56.068c-6.048 3.664-15.332 5.52-27.592 5.52h-56.054c-12.71 0-18.892 2.752-18.892 8.405v11.54c0 5.65 6.18 8.396 18.892 8.396H727.4v13.182h-85.876c-12.26 0-21.54-1.86-27.593-5.525-5.934-3.595-8.82-8.848-8.82-16.052v-11.54c0-7.208 2.886-12.46 8.82-16.06 6.054-3.666 15.335-5.522 27.594-5.522h56.054c12.714 0 18.896-2.747 18.896-8.396v-18.737c0-5.45-6.182-8.1-18.896-8.1h-88.87v-13.18h88.87c12.26 0 21.548 1.835 27.597 5.452 5.935 3.547 8.822 8.726 8.822 15.828v18.738c0 7.205-2.887 12.458-8.826 16.053m48.222 33.861H828.7v-89.93h17.527v89.93h53.806v13.18h-126.64zm168.144-89.932h17.523v103.11H941.54zm163.737 21.281c0-5.45-6.18-8.1-18.892-8.1h-46.612c-12.71 0-18.89 2.748-18.89 8.397v59.955c0 5.653 6.18 8.4 18.89 8.4h81.38v13.18h-81.38c-12.258 0-21.54-1.86-27.588-5.524-5.94-3.594-8.826-8.847-8.826-16.055V223.35c0-7.207 2.887-12.456 8.826-16.055 6.05-3.665 15.33-5.52 27.59-5.52h46.61c12.26 0 21.545 1.834 27.598 5.45 5.938 3.548 8.822 8.724 8.822 15.83v33.864h-17.527zm162.812 68.651v13.18h-106.104v-103.11h106.104v13.18h-88.577v34.785h84.083v13.176h-84.083v28.79z"/></g></svg>